PathFileType	3	(X/Y/Z)	D:\Vicon Database\Healthy Subjects\S0040\Jan. 30, 2020\Static Calibration.trc
DataRate	CameraRate	NumFrames	NumMarkers	Units	OrigDataRate	OrigDataStartFrame	OrigNumFrames
100.0	100.0	5	69	mm	100.0	151	300	
Frame#	Time	sternum_cluster1			sternum_cluster2			sternum_cluster3			left_asis			right_asis			left_psis			right_psis			sacrum_cluster1			sacrum_cluster2			sacrum_cluster3			left_lat_femoral_epicondyle			left_med_femoral_epicondyle			left_anterior_thigh15			left_anterior_thigh25			left_anterior_thigh50			left_lateral_thigh25			left_lateral_thigh50			left_trochanter			left_thigh_cluster1			left_thigh_cluster2			left_thigh_cluster3			left_lateral_tibial_condyle			left_medial_tibial_condyle			left_fibular_head			left_tibial_tuberosity			left_anterior_shank30			left_lateral_malleolus			left_medial_malleolus			left_shank_cluster1			left_shank_cluster2			left_shank_cluster3			left_heel			left_metatarsal2			left_metatarsal5			left_metatarsal1			left_toe_tip			left_foot_cluster1			left_foot_cluster2			left_foot_cluster3			right_lat_femoral_epicondyle			right_med_femoral_epicondyle			right_anterior_thigh15			right_anterior_thigh25			right_anterior_thigh50			right_lateral_thigh25			right_lateral_thigh50			right_trochanter			right_thigh_cluster1			right_thigh_cluster2			right_thigh_cluster3			right_lateral_tibial_condyle			right_medial_tibial_condyle			right_fibular_head			right_tibial_tuberosity			right_lateral_distal_shank			right_anterior_shank30			right_lateral_malleolus			right_medial_malleolus			right_shank_cluster1			right_shank_cluster2			right_shank_cluster3			right_heel			right_metatarsal2			right_metatarsal5			right_metatarsal1			right_toe_tip			right_foot_cluster1			right_foot_cluster2			right_foot_cluster3			
		X1	Y1	Z1	X2	Y2	Z2	X3	Y3	Z3	X4	Y4	Z4	X5	Y5	Z5	X6	Y6	Z6	X7	Y7	Z7	X8	Y8	Z8	X9	Y9	Z9	X10	Y10	Z10	X11	Y11	Z11	X12	Y12	Z12	X13	Y13	Z13	X14	Y14	Z14	X15	Y15	Z15	X16	Y16	Z16	X17	Y17	Z17	X18	Y18	Z18	X19	Y19	Z19	X20	Y20	Z20	X21	Y21	Z21	X22	Y22	Z22	X23	Y23	Z23	X24	Y24	Z24	X25	Y25	Z25	X26	Y26	Z26	X27	Y27	Z27	X28	Y28	Z28	X29	Y29	Z29	X30	Y30	Z30	X31	Y31	Z31	X32	Y32	Z32	X33	Y33	Z33	X34	Y34	Z34	X35	Y35	Z35	X36	Y36	Z36	X37	Y37	Z37	X38	Y38	Z38	X39	Y39	Z39	X40	Y40	Z40	X41	Y41	Z41	X42	Y42	Z42	X43	Y43	Z43	X44	Y44	Z44	X45	Y45	Z45	X46	Y46	Z46	X47	Y47	Z47	X48	Y48	Z48	X49	Y49	Z49	X50	Y50	Z50	X51	Y51	Z51	X52	Y52	Z52	X53	Y53	Z53	X54	Y54	Z54	X55	Y55	Z55	X56	Y56	Z56	X57	Y57	Z57	X58	Y58	Z58	X59	Y59	Z59	X60	Y60	Z60	X61	Y61	Z61	X62	Y62	Z62	X63	Y63	Z63	X64	Y64	Z64	X65	Y65	Z65	X66	Y66	Z66	X67	Y67	Z67	X68	Y68	Z68	X69	Y69	Z69	
151	1.5	782.6662	1473.9255	-228.38254	769.1123	1446.6865	-220.93614	772.1178	1450.2189	-258.75571	752.37183	1078.2101	-120.89049	762.23828	1086.3038	-369.11905	919.96844	1090.4056	-164.68828	928.18909	1096.3597	-281.77826	937.70416	1143.4722	-226.47514	942.81842	1118.2389	-238.89044	943.21625	1111.1792	-200.0036	872.33051	553.19202	-79.289337	859.83942	541.61072	-214.08984	765.7204	614.05933	-137.45854	733.36212	699.29004	-128.32465	718.63495	840.11279	-114.12991	845.00964	706.61346	-62.361275	815.72784	849.78046	-42.029903	815.62268	971.54474	-55.383583	820.68762	807.9715	-37.446674	827.39709	778.93707	-38.220741	789.61176	784.21362	-37.838707	878.52277	500.46921	-76.193314	871.84338	486.21658	-199.47659	879.25787	472.34009	-71.265694	821.95428	461.63458	-124.2723	820.45685	216.34689	-122.88342	858.98303	98.504402	-94.312317	841.65332	108.58534	-172.12006	816.02075	412.95602	-148.26744	809.32068	386.34332	-138.41072	821.59149	383.86533	-175.06023	926.82178	61.451405	-133.56613	708.81793	68.487144	-116.30982	735.30243	56.977856	-77.562645	713.56531	60.309521	-159.82002	657.3418	59.919735	-110.83936	772.03235	116.98449	-115.23261	747.79883	102.61108	-103.42935	741.7323	107.57719	-141.19841	852.44788	539.01953	-384.62213	845.65198	539.55743	-251.06784	760.3064	615.2688	-327.43805	731.46722	697.16754	-324.83792	718.28339	830.12427	-337.34238	831.28186	698.47778	-409.41129	816.13605	844.38953	-436.00925	819.9187	973.83478	-425.05899	829.18506	793.63202	-440.06537	819.26917	766.57227	-436.20529	858.43848	767.50409	-432.896	863.03033	499.61911	-384.68491	849.08514	484.68497	-265.58328	870.52893	473.0321	-388.85022	814.19836	460.26508	-345.22397	874.1601	203.24684	-386.19205	827.69952	217.13736	-341.59195	870.06659	98.327034	-374.0278	855.57178	107.22528	-294.48001	822.15778	397.92572	-291.67795	826.24799	369.42175	-285.46335	803.32831	369.65063	-315.07272	940.48346	62.145027	-340.43939	721.58661	68.757759	-341.94281	756.00781	55.563679	-392.06821	731.37305	51.433567	-300.60544	670.82281	56.163883	-351.64365	779.21423	115.60397	-337.25339	754.66785	101.82715	-329.55756	755.58459	106.85993	-366.71085
152	1.51	782.77216	1473.9424	-228.38593	769.23779	1446.6868	-220.96133	772.25092	1450.2115	-258.78632	752.41071	1078.2235	-120.97006	762.29926	1086.3474	-369.20181	919.99164	1090.3689	-164.70976	928.13629	1096.2947	-281.79904	937.65948	1143.2927	-226.37457	942.82788	1118.2004	-238.97971	943.25757	1111.1567	-200.04114	872.27057	553.16125	-79.331909	858.38464	541.68268	-214.71326	765.64374	614.07831	-137.50273	733.25769	699.31262	-128.38298	718.56146	840.14899	-114.18307	844.94373	706.62469	-62.40089	815.66541	849.80072	-42.062466	815.56268	971.56653	-55.424511	820.63062	807.99353	-37.484463	827.30579	778.9328	-38.247101	789.61816	784.14075	-37.898491	878.43732	500.49646	-76.206482	871.68463	486.25735	-199.42084	879.17975	472.36316	-71.243561	821.90216	461.63364	-124.28496	820.44324	216.31915	-122.89026	858.95752	98.523605	-94.281075	841.63422	108.5938	-172.1241	815.84204	413.02765	-148.26721	809.28925	386.28827	-138.424	821.55493	383.83676	-175.09003	926.79645	61.501442	-133.53978	708.83453	68.497261	-116.29275	735.33215	56.942993	-77.544662	713.56799	60.305935	-159.82541	657.24261	59.994694	-110.75367	772.05859	116.96657	-115.22311	747.8053	102.57809	-103.41589	741.87573	107.56604	-141.15929	851.539	538.86969	-385.19366	845.59766	539.57196	-251.1048	760.26434	615.26617	-327.51648	731.43878	697.18433	-324.94336	718.30646	830.13525	-337.45892	831.14252	698.51202	-409.43607	816.08453	844.42645	-436.11719	819.9386	973.8656	-425.09091	829.18085	793.65839	-440.13986	819.32178	766.56641	-436.24252	858.17615	767.38843	-432.81143	862.99579	499.61301	-384.7334	849.02094	484.69455	-265.59512	870.46887	473.02713	-388.92126	814.16364	460.26764	-345.27274	874.13544	203.25073	-386.18692	827.67877	217.14711	-341.60455	870.07538	98.310875	-374.00006	855.56189	107.231	-294.46188	822.12238	397.94138	-291.72086	826.27161	369.39648	-285.50705	803.31274	369.63867	-315.1286	940.46771	62.145081	-340.40802	721.59125	68.765533	-341.9292	755.97253	55.586414	-392.06546	731.35437	51.454475	-300.55194	670.83459	56.161484	-351.63321	779.23291	115.60643	-337.25629	754.67041	101.80479	-329.54581	755.59082	106.84004	-366.71741
153	1.52	782.8963	1473.939	-228.41881	769.35883	1446.6968	-220.9893	772.36963	1450.2271	-258.81265	752.42267	1078.2679	-121.04171	762.37921	1086.3488	-369.26959	919.99207	1090.3225	-164.84915	928.23303	1096.2589	-281.85718	937.74579	1143.4077	-226.60085	942.90527	1118.1765	-239.04643	943.28436	1111.0568	-200.16545	872.19971	553.17633	-79.3564	858.33142	541.59149	-214.75124	765.58807	614.10193	-137.53899	733.19403	699.34314	-128.42802	718.52161	840.16547	-114.24795	844.88708	706.63867	-62.469685	815.62646	849.81177	-42.147934	815.56494	971.54645	-55.508881	821.00861	807.5946	-37.968758	827.25256	778.95966	-38.283905	789.47559	784.25555	-37.938938	878.36505	500.50378	-76.231781	871.61139	486.21313	-199.5162	879.13361	472.35504	-71.275925	821.84479	461.60754	-124.30399	820.42395	216.3349	-122.88269	858.99677	98.509422	-94.285767	841.65601	108.57632	-172.1194	815.69409	413.05728	-148.26961	809.25323	386.27933	-138.42625	821.52429	383.81674	-175.09293	926.84033	61.422428	-133.56676	708.85345	68.484642	-116.28696	735.33386	56.955925	-77.570244	713.58905	60.307842	-159.81323	657.35303	59.902676	-110.82986	772.09131	116.95158	-115.21409	747.83032	102.59267	-103.40182	741.88641	107.57141	-141.13947	851.33673	538.84686	-385.32602	845.58221	539.56036	-251.16061	760.22894	615.29163	-327.56592	731.43445	697.19818	-325.01715	718.29376	830.17505	-337.539	831.21808	698.48987	-409.51874	816.28418	844.3302	-435.99164	820.06708	973.83228	-425.17804	829.27936	793.63507	-440.19211	819.40607	766.2981	-436.41187	858.33771	767.47003	-432.88226	862.99939	499.58591	-384.79529	849.01654	484.69785	-265.66748	870.49048	472.99539	-388.93246	814.15179	460.24875	-345.30743	874.10785	203.29237	-386.19125	827.6944	217.12917	-341.61533	870.11298	98.300774	-374.0072	854.99603	107.8213	-293.83759	822.09467	397.92325	-291.74802	826.15552	369.47092	-285.51349	803.3053	369.61911	-315.15527	940.51141	62.054939	-340.45013	721.62543	68.732552	-341.94009	755.98157	55.580997	-392.04105	731.40717	51.426319	-300.57208	670.85101	56.139233	-351.63904	779.24414	115.59641	-337.23907	754.70111	101.79548	-329.55264	755.62585	106.81369	-366.72086
154	1.53	782.99634	1473.9573	-228.4855	769.43958	1446.7043	-221.04262	772.47729	1450.2391	-258.85959	752.60382	1078.1826	-121.29597	762.43652	1086.3843	-369.35495	919.97974	1090.3289	-164.87268	928.29773	1096.3243	-281.8959	937.76495	1143.2021	-226.59633	942.91797	1118.1447	-239.04359	943.29169	1111.0894	-200.20787	872.04706	553.2215	-79.372864	858.21283	541.64313	-214.7718	765.508	614.11737	-137.59039	733.14032	699.34967	-128.49481	718.46338	840.19519	-114.33537	844.80084	706.68091	-62.511459	815.54999	849.83746	-42.216114	815.50073	971.54803	-55.580383	820.48871	808.02539	-37.584164	827.17865	778.9632	-38.363796	789.41309	784.2937	-38.025238	878.28967	500.50217	-76.288391	871.58075	486.21149	-199.55856	879.03119	472.38065	-71.3069	821.78729	461.59732	-124.34619	820.36902	216.32991	-122.90703	858.98553	98.483284	-94.304619	841.64441	108.56535	-172.14583	815.70813	412.98495	-148.33044	809.17206	386.29874	-138.47493	821.45868	383.79932	-175.1571	926.83588	61.436211	-133.55902	708.84027	68.495544	-116.30272	735.31421	56.95295	-77.578499	713.58386	60.303463	-159.82707	657.35107	59.898075	-110.84052	772.06067	116.96368	-115.23211	747.77228	102.60545	-103.41962	741.89789	107.54832	-141.16524	851.25043	538.87598	-385.36374	845.52423	539.58185	-251.21835	760.17493	615.31793	-327.66959	731.40393	697.23651	-325.10925	718.28131	830.20264	-337.66721	831.22974	698.50354	-409.63229	816.23352	844.4079	-436.25928	820.03516	973.86816	-425.25565	829.29602	793.61865	-440.27356	819.33569	766.55603	-436.41058	858.31836	767.37689	-432.939	862.93835	499.5975	-384.83112	848.93201	484.70303	-265.72021	870.18646	472.94308	-388.80685	814.12207	460.24188	-345.36691	874.09106	203.21751	-386.22977	827.68549	217.10828	-341.65717	869.67841	98.360497	-374.31357	855.48785	107.28885	-294.42505	822.04724	397.91364	-291.79968	826.09741	369.46805	-285.56284	803.2984	369.60709	-315.21725	940.50775	62.111889	-340.45218	721.60339	68.734116	-341.94809	756.00476	55.567284	-392.06985	731.38568	51.427631	-300.59375	670.84113	56.144451	-351.64767	779.23596	115.59383	-337.27505	754.67645	101.79425	-329.55997	755.5965	106.84174	-366.71378
155	1.54	783.10223	1473.9521	-228.51743	769.53949	1446.7125	-221.0872	772.57251	1450.2385	-258.90857	752.44659	1078.3079	-121.24841	762.50336	1086.3763	-369.43124	920.013	1090.3229	-164.91794	928.341	1096.29	-281.94455	937.79474	1143.2676	-226.4801	942.96747	1118.1436	-239.08884	943.32428	1111.0669	-200.18701	872.04083	553.17871	-79.407089	858.18658	541.64569	-214.76575	765.45697	614.13275	-137.63206	733.0733	699.38074	-128.533	718.42328	840.20959	-114.40665	844.74554	706.69055	-62.551842	815.52051	849.84229	-42.262989	815.45947	971.59064	-55.642067	820.47217	808.02826	-37.656055	827.17242	778.94684	-38.451973	789.39355	784.29016	-38.093967	878.21942	500.51999	-76.299728	871.51831	486.21643	-199.55629	878.98499	472.37289	-71.33213	821.7359	461.6004	-124.36308	820.36084	216.31703	-122.91517	858.95514	98.538963	-94.291275	841.63916	108.55985	-172.14098	815.61438	413.03464	-148.3334	809.14246	386.27274	-138.48045	821.36255	383.80881	-175.16357	926.85785	61.507465	-133.5307	708.84283	68.489868	-116.29948	735.31989	56.977036	-77.559494	713.57904	60.291138	-159.8299	657.24457	60.008305	-110.76096	772.06036	116.97169	-115.22958	747.7948	102.60535	-103.39474	741.85706	107.5826	-141.16739	851.2829	538.89447	-385.39377	845.44202	539.60852	-251.25104	760.16107	615.34064	-327.72928	731.38129	697.24408	-325.18344	718.27563	830.23706	-337.73587	831.20996	698.5285	-409.64838	816.23993	844.41943	-436.34421	820.07147	973.85376	-425.31128	829.23511	793.65869	-440.37466	819.28815	766.64429	-436.54745	858.36713	767.4447	-433.03412	862.89996	499.60236	-384.87827	848.89404	484.71133	-265.75998	870.13745	472.95056	-388.85303	814.06854	460.25244	-345.40787	874.09851	203.20418	-386.22266	827.64276	217.12917	-341.67523	869.55884	98.39386	-374.34634	855.5755	107.22119	-294.48041	822.01752	397.90717	-291.84927	826.10596	369.4494	-285.61014	803.26959	369.59668	-315.26041	940.52844	62.202072	-340.41046	721.60498	68.731697	-341.94724	755.9707	55.567657	-392.06708	731.37115	51.414398	-300.58212	670.84186	56.147465	-351.6369	779.21356	115.60226	-337.27374	754.6792	101.7845	-329.5556	755.57031	106.8558	-366.71469
